# xmcd
#
# Track frame offsets:
#	150
#	12675
#	21000
#	33600
#	46950
#	60450
#	68700
#	85650
#	94650
#	109125
#
# Disc length: 1586 seconds
#
# Revision: 1
# Processed by: cddbd v1.5.2PL0 Copyright (c) Steve Scherf et al.
# Submitted via: audiograbber 1.83.01
#
DISCID=7a06300a
DTITLE=Narrow Way Quartet - One Day Nearer Home
DYEAR=1900
DGENRE=Gospel
TTITLE0=One Day Nearer Home
TTITLE1=Press On Oh Pilgram
TTITLE2=I'll Leave It All Behind
TTITLE3=I Mean To Go Through
TTITLE4=I've Got A Longing To Go
TTITLE5=There's Gonna Be A Meeting
TTITLE6=House Of Clay
TTITLE7=His Love Lights The Way
TTITLE8=Mama I Saw Jesus In You
TTITLE9=When We Get Home
EXTD=
EXTT0=
EXTT1=
EXTT2=
EXTT3=
EXTT4=
EXTT5=
EXTT6=
EXTT7=
EXTT8=
EXTT9=
PLAYORDER=
